<svg xmlns="http://www.w3.org/2000/svg" xmlns:xlink="http://www.w3.org/1999/xlink" width="1080" zoomAndPan="magnify" viewBox="0 0 810 809.999993" height="1080" preserveAspectRatio="xMidYMid meet" version="1.2"><defs/><g id="d46b7d39e2"><rect x="0" width="810" y="0" height="809.999993" style="fill:#ffffff;fill-opacity:1;stroke:none;"/><rect x="0" width="810" y="0" height="809.999993" style="fill:#000000;fill-opacity:1;stroke:none;"/><g style="fill:#ffffff;fill-opacity:1;"><g transform="translate(39.612215, 716.991342)"><path style="stroke:none" d="M 27.359375 -618.453125 L 190.796875 -618.453125 C 240.234375 -618.453125 275.507812 -602.492188 296.625 -570.578125 C 317.75 -538.660156 328.3125 -491.984375 328.3125 -430.546875 C 328.3125 -369.109375 318.945312 -322.789062 300.21875 -291.59375 C 281.5 -260.394531 247.90625 -244.796875 199.4375 -244.796875 L 149.03125 -244.796875 L 149.03125 0 L 27.359375 0 Z M 156.234375 -356.390625 C 171.109375 -356.390625 182.023438 -359.144531 188.984375 -364.65625 C 195.953125 -370.175781 200.515625 -378.097656 202.671875 -388.421875 C 204.828125 -398.742188 205.90625 -413.503906 205.90625 -432.703125 C 205.90625 -458.617188 203.023438 -477.335938 197.265625 -488.859375 C 191.503906 -500.378906 179.988281 -506.140625 162.71875 -506.140625 L 149.03125 -506.140625 L 149.03125 -356.390625 Z M 156.234375 -356.390625 "/></g></g><g style="fill:#ffffff;fill-opacity:1;"><g transform="translate(350.638444, 716.991342)"><path style="stroke:none" d="M 80.640625 0 L 80.640625 -499.65625 L 7.203125 -499.65625 L 7.203125 -618.453125 L 277.90625 -618.453125 L 277.90625 -499.65625 L 204.46875 -499.65625 L 204.46875 0 Z M 80.640625 0 "/></g></g><g style="fill:#ffffff;fill-opacity:1;"><g transform="translate(606.947181, 716.991342)"><path style="stroke:none" d="M 21.59375 0 L 21.59375 -618.453125 L 141.109375 -618.453125 L 141.109375 0 Z M 21.59375 0 "/></g></g></g></svg>